<?xml version="1.0" encoding="UTF-8" standalone="no"?>
<!DOCTYPE svg PUBLIC "-//W3C//DTD SVG 1.1//EN" "http://www.w3.org/Graphics/SVG/1.1/DTD/svg11.dtd">
<svg version="1.1" xmlns="http://www.w3.org/2000/svg" xmlns:xlink="http://www.w3.org/1999/xlink" preserveAspectRatio="xMidYMid meet" viewBox="0 0 640 640" width="640" height="640"><defs><path d="M595.19 262.3C582.19 264.38 573.33 276.6 575.41 289.6C575.43 289.74 575.45 289.88 575.48 290.02C599.76 432.93 503.59 568.46 360.68 592.74C217.77 617.02 82.24 520.85 57.96 377.94C33.68 235.03 129.86 99.5 272.76 75.22C360.65 60.29 450.11 90.99 510.3 156.74C499.74 160.26 415.26 188.41 404.7 191.93C392.21 196.08 385.45 209.58 389.6 222.07C389.61 222.08 389.61 222.08 389.61 222.08C393.77 234.58 407.26 241.33 419.75 237.18C419.76 237.17 419.76 237.17 419.76 237.17C434.07 232.41 548.49 194.26 562.8 189.5C572.54 186.25 579.11 177.14 579.1 166.87C579.1 152.57 579.1 38.14 579.1 23.84C579.1 10.67 568.43 0 555.27 0C542.1 0 531.43 10.67 531.43 23.84C531.43 32.55 531.43 102.21 531.43 110.92C408.66 -5.85 214.47 -0.98 97.71 121.79C-19.06 244.56 -14.2 438.74 108.57 555.51C231.34 672.28 425.52 667.41 542.29 544.64C608.88 474.64 638.59 377.35 622.49 282.09C620.42 269.08 608.19 260.23 595.19 262.3Z" id="bpwj37w1u"></path></defs><g><g><g><use xlink:href="#bpwj37w1u" opacity="1" fill="#ffffff" fill-opacity="1"></use><g><use xlink:href="#bpwj37w1u" opacity="1" fill-opacity="0" stroke="#000000" stroke-width="1" stroke-opacity="0"></use></g></g></g></g></svg>