<?xml version="1.0" encoding="iso-8859-1"?>
<!-- Generator: Adobe Illustrator 19.0.0, SVG Export Plug-In . SVG Version: 6.00 Build 0)  -->
<svg version="1.1" id="Capa_1" xmlns="http://www.w3.org/2000/svg" xmlns:xlink="http://www.w3.org/1999/xlink" x="0px" y="0px"
	 viewBox="0 0 512 512" style="enable-background:new 0 0 512 512;" xml:space="preserve">
<g>
	<g>
		<path d="M226,0c-41.353,0-75,33.647-75,75c0,41.353,33.647,75,75,75c41.353,0,75-33.647,75-75C301,33.647,267.353,0,226,0z
			 M226,120c-24.814,0-45-20.186-45-45c0-24.814,20.186-45,45-45c24.814,0,45,20.186,45,45C271,99.814,250.814,120,226,120z"/>
	</g>
</g>
<g>
	<g>
		<path d="M497,150c-8.291,0-15,6.709-15,15c0,5.284-1.082,10.285-2.763,15c-6.213-17.422-22.707-30-42.237-30
			c-24.814,0-45,20.186-45,45c0,24.814,20.186,45,45,45c3.411,0,9.91-0.813,12.634-1.278c-5.118,15.835-19.831,27.356-36.548,30.114
			C389.411,200.273,314.57,150,226,150c-28.271,0-56.591,5.127-82.372,15.249C102.129,132.847,42.939,135.85,5,173.789
			c-5.859,5.859-5.859,15.352,0,21.211l46.24,46.099c-6.035,9.858-10.693,19.658-14.063,29.575C16.084,274.395,0,292.852,0,315v30
			c0,24.814,20.186,46,45,46h6.475c9.902,16.304,23.027,31.274,38.525,43.901V497c0,8.291,6.709,15,15,15h61c8.291,0,15-6.709,15-15
			v-20.541c29.736,6.035,60.264,6.035,90,0V497c0,8.291,6.709,15,15,15h60c8.291,0,15-6.709,15-15v-62.099
			c38.232-31.084,60-75.033,60-119.901c0-5.543-0.35-11.014-0.983-16.417C454.679,291.987,482,261.553,482,225v-0.383
			c18.104-13.705,30-35.213,30-59.617C512,156.709,505.291,150,497,150z M105,300c-8.284,0-15-6.716-15-15c0-8.286,6.716-15,15-15
			s15,6.714,15,15C120,293.284,113.284,300,105,300z M286.469,236.821c-2.051,6.343-7.939,10.386-14.268,10.386
			c-1.523,0-3.076-0.234-4.614-0.732c-26.602-8.584-56.572-8.584-83.174,0c-7.925,2.563-16.333-1.758-18.882-9.653
			c-2.549-7.881,1.772-16.333,9.653-18.882c32.549-10.547,69.082-10.547,101.631,0C284.696,220.488,289.018,228.94,286.469,236.821z
			 M437,210c-8.276,0-15-6.724-15-15s6.724-15,15-15s15,6.724,15,15S445.276,210,437,210z"/>
	</g>
</g>
<g>
</g>
<g>
</g>
<g>
</g>
<g>
</g>
<g>
</g>
<g>
</g>
<g>
</g>
<g>
</g>
<g>
</g>
<g>
</g>
<g>
</g>
<g>
</g>
<g>
</g>
<g>
</g>
<g>
</g>
</svg>
