<svg id="Capa_1" enable-background="new 0 0 512 512" height="512" viewBox="0 0 512 512" width="512" xmlns="http://www.w3.org/2000/svg"><g><path d="m107 496 121.88-122.113c-54.283-7.606-101.418-37.529-131.808-80.301l-97.072 96.414h107z"/><path d="m283.12 373.887 121.88 122.113v-106h107l-97.072-96.414c-30.39 42.772-77.525 72.695-131.808 80.301z"/><path d="m229.735 224.667 26.265-13.813 26.265 13.813-5.01-29.268 21.255-20.698-29.37-4.277-13.14-26.616-13.14 26.616-29.37 4.277 21.255 20.698z"/><path d="m256 346c90.981 0 165-74.019 165-165s-74.019-165-165-165-165 74.019-165 165 74.019 165 165 165zm-33.062-202.998 33.062-66.958 33.062 66.958 73.901 10.752-53.481 52.134 12.627 73.594-66.109-34.732-66.108 34.731 12.627-73.594-53.481-52.134z"/></g></svg>